<svg width="25" height="25" viewBox="0 0 25 25" fill="none" xmlns="http://www.w3.org/2000/svg">
<path d="M0.923406 0.684211C0.389235 0.684211 -0.0115244 1.08173 0.0354868 1.55144L2.07245 21.6245C2.11957 22.0939 2.58119 22.5851 3.09896 22.712L11.1284 24.6734C11.6453 24.7995 12.4906 24.8003 13.0084 24.6751L21.0479 22.7164C21.5658 22.5899 22.0273 22.1031 22.0744 21.6329L24.1122 1.55144C24.1593 1.08173 23.7603 0.684211 23.2235 0.684211H0.923406ZM19.4953 6.79606C19.4481 7.26654 18.9602 7.46793 18.4261 7.46793H8.76148C8.2265 7.46793 7.82475 8.03501 7.87368 8.50437L7.97794 9.76845C8.02513 10.2382 8.50304 10.8603 9.04 10.8603H18.1586C18.6928 10.8603 19.0945 11.0983 19.0455 11.5677L18.3862 17.9858C18.339 18.4551 17.8774 18.9065 17.3596 19.0317L13.0084 20.0745C12.4924 20.2001 11.6472 20.1913 11.1284 20.0646L6.7873 19.0006C6.27122 18.8746 5.80961 18.385 5.76068 17.9156L5.50037 15.2199C5.45132 14.7506 5.85307 14.2522 6.38817 14.2522H7.48642C8.02327 14.2522 8.50117 14.7495 8.54836 15.2188L8.6009 15.793C8.64808 16.2636 9.11156 16.776 9.62939 16.8996L11.1284 17.2689C11.6471 17.3925 12.4942 17.3993 13.012 17.2761L14.5174 16.9215C15.0352 16.7979 15.4987 16.3158 15.5458 15.8453L15.7263 14.1745C15.7735 13.7047 15.3726 13.404 14.8377 13.404H6.26215C5.7271 13.404 5.24826 12.9371 5.19927 12.4666L4.55357 5.9384C4.50464 5.46822 4.9054 4.92437 5.4405 4.92437H18.7063C19.2432 4.92437 19.6422 5.33544 19.595 5.80598L19.4953 6.79606Z" fill="black"/>
</svg>
