<svg width="25" height="25" viewBox="0 0 25 25" fill="none" xmlns="http://www.w3.org/2000/svg">
<path d="M13.3777 17.5581C13.3777 17.5581 13.3244 17.1004 12.8349 17.1004C12.3453 17.1004 12.0101 17.1643 12.0101 17.4357C12.0101 17.7071 12.9626 17.7071 13.3245 17.8135C13.6864 17.9199 14.0056 18.1966 13.846 18.6862C13.6863 19.1758 13.1967 19.229 12.4411 19.229C11.6855 19.229 11.5151 18.601 11.5151 18.3563H11.9408C11.9408 18.3563 11.8876 18.7394 12.3878 18.8033C12.888 18.8671 13.3663 18.903 13.4308 18.5159C13.516 18.005 11.8131 18.2605 11.6641 17.7603C11.5382 17.3376 11.6108 16.7812 12.4623 16.696C13.3137 16.6108 13.782 16.9867 13.782 17.5474L13.3777 17.5581Z" fill="#66A060"/>
<path d="M9.26518 19.5532L10.2063 20.0966C10.6792 20.3696 11.2703 20.0283 11.2703 19.4823V18.5301V16.7777H10.8867V19.3756C10.8867 19.6738 10.5639 19.8602 10.3056 19.711L9.64874 19.3318V16.5593L12.0498 15.1732L14.4508 16.5593V19.3318L12.0498 20.7179L11.3581 20.3186L10.9064 20.5007L12.0497 21.1608L14.8344 19.5531V16.3379L12.0498 14.7302L9.26514 16.338V19.5532H9.26518Z" fill="#66A060"/>
<path d="M24.1897 12.7263C24.1897 19.377 18.7983 24.7684 12.1476 24.7684C6.01151 24.7684 0.947428 20.1792 0.200818 14.2456C0.137926 13.7482 0.105469 13.2409 0.105469 12.7263C0.105469 11.7836 0.213613 10.866 0.418564 9.98561C1.65914 4.65566 6.43962 0.684211 12.1476 0.684211C17.8413 0.684211 22.6124 4.636 23.8668 9.94633C24.0314 10.6408 24.1351 11.3585 24.173 12.0933C24.1843 12.3031 24.1897 12.514 24.1897 12.7263Z" fill="#F2F2F2"/>
<path d="M11.5454 13.6934V10.5625L8.83396 8.99707L6.12256 10.5625V13.6934L8.83396 15.2588L11.5454 13.6934Z" fill="#3B8739"/>
<path d="M22.2234 13.2183L23.9904 14.2387L22.2234 15.2591L19.5122 13.6936V10.5627L22.2234 8.99718L23.8666 9.9463C24.0312 10.6408 24.1349 11.3584 24.1728 12.0932L23.1681 12.6732V11.5826L22.2234 11.0375L21.2787 11.5826V12.6732L22.2234 13.2183Z" fill="#333333"/>
<path d="M22.75 12.4318V11.8241L22.2236 11.5202L21.6973 11.8241V12.4318L22.2236 12.7358L22.75 12.4318Z" fill="#66A060"/>
<path d="M4.84169 10.5627V14.6914L3.03339 13.6597V11.5433L2.13052 11.0218L1.2276 11.5432V13.6597L0.200818 14.2456C0.137926 13.7482 0.105469 13.2409 0.105469 12.7263C0.105469 11.7836 0.213613 10.866 0.418564 9.98562L2.13052 8.99718L4.84169 10.5627Z" fill="#333333"/>
<path d="M11.5449 13.693L8.8335 8.99693L6.12222 10.5623L8.8336 15.2584L11.5449 13.693Z" fill="#6DA75D"/>
<path d="M6.12256 13.6934L7.05356 12.1752L6.12256 10.5625V13.6934Z" fill="#55A344"/>
<path d="M10.6415 12.1278L11.5454 10.5625L8.83398 8.99707L10.6415 12.1278Z" fill="#639D57"/>
<path d="M16.4071 5.36837V9.52213L15.4983 8.99718L12.7866 10.5626V13.6936L15.4983 15.2591L18.2095 13.6936V6.33319L16.4071 5.36837ZM16.4022 12.6496L15.4983 13.1716L14.5943 12.6496V11.6062L15.4983 11.0842L16.4022 11.6062V12.6496Z" fill="#333333"/>
</svg>
