<svg width="25" height="25" viewBox="0 0 25 25" fill="none" xmlns="http://www.w3.org/2000/svg">
<path d="M24.9475 12.7263C24.9475 13.4547 24.8826 14.1679 24.7588 14.8604C23.7517 20.4932 18.8277 24.7684 12.9054 24.7684C8.44341 24.7684 4.54817 22.3418 2.46808 18.7361C1.96034 17.8568 1.56125 16.9077 1.28795 15.9064C1.01075 14.8934 0.863281 13.8268 0.863281 12.7263C0.863281 6.07564 6.25471 0.684211 12.9054 0.684211C18.3946 0.684211 23.0256 4.35682 24.4761 9.37908C24.7829 10.4418 24.9475 11.5649 24.9475 12.7263Z" fill="#8F9ED1"/>
<path d="M6.98668 9.06848H2.55175L1.28809 15.9064C1.56139 16.9077 1.96047 17.8568 2.46821 18.7361H2.87962L3.36916 16.0878H5.80609C8.77334 16.0878 9.57108 13.4238 9.76229 12.1154C9.95398 10.8074 8.99701 9.06848 6.98668 9.06848ZM7.63009 12.336C7.52147 13.0777 6.97342 14.5881 5.29147 14.5881H3.64636L4.38168 10.6084H6.05629C7.68861 10.6084 7.7387 11.5944 7.63009 12.336Z" fill="#F2F2F2"/>
<path d="M24.476 9.37908C24.0991 9.18443 23.6498 9.06843 23.1308 9.06843H18.6958L16.9092 18.7361H19.0237L19.5132 16.0878H21.9501C23.2699 16.0878 24.1605 15.5609 24.7586 14.8605C24.8826 14.1679 24.9474 13.4547 24.9474 12.7263C24.9474 11.5649 24.7828 10.4418 24.476 9.37908ZM23.7742 12.336C23.6656 13.0777 23.1175 14.5881 21.435 14.5881H19.7904L20.5258 10.6084H22.2004C23.8327 10.6084 23.8828 11.5944 23.7742 12.336Z" fill="#F2F2F2"/>
<path d="M15.4098 9.10047C14.5492 9.10047 13.401 9.10047 12.8416 9.10047L13.3236 6.49208H11.2178L9.43115 16.1594H11.5369L12.5644 10.6C12.944 10.6 13.4483 10.6 13.9102 10.6C14.8035 10.6 15.4098 10.7915 15.2821 11.621C15.1545 12.4506 14.4207 16.1197 14.4207 16.1197H16.5583C16.5583 16.1197 17.3879 12.0358 17.5155 10.8872C17.6431 9.73856 16.5903 9.10047 15.4098 9.10047Z" fill="#F2F2F2"/>
</svg>
