<svg width="25" height="25" viewBox="0 0 25 25" fill="none" xmlns="http://www.w3.org/2000/svg">
<path d="M24.7263 12.7263C24.7263 13.8155 24.5818 14.8713 24.3105 15.875C23.6764 18.2219 22.3508 20.2848 20.5651 21.8316C18.4531 23.6615 15.6982 24.7684 12.6842 24.7684C6.03352 24.7684 0.64209 19.377 0.64209 12.7263C0.64209 6.07564 6.03352 0.684211 12.6842 0.684211C19.3349 0.684211 24.7263 6.07564 24.7263 12.7263Z" fill="#0078CF"/>
<path d="M24.3103 15.875C23.6763 18.222 22.3506 20.2848 20.565 21.8316C20.3905 21.841 20.2081 21.8454 20.0189 21.8454C17.5186 21.8454 16.1291 20.2829 15.4385 19.1106L17.7054 17.7486C17.7054 17.7486 18.4765 19.3874 19.9221 19.3874C21.3681 19.3874 21.9466 18.9052 21.9466 17.7968C21.9466 16.4471 17.2713 15.9654 16.5483 13.6519C15.8253 11.3383 16.7892 8.06037 20.1634 8.30173C22.272 8.45212 23.458 9.48774 24.0513 10.2432L21.8021 11.8681C21.3199 10.4708 19.344 10.4708 18.9582 11.6273C18.5728 12.7843 19.8738 13.4587 21.8984 14.1335C22.9385 14.48 23.775 15.1195 24.3103 15.875Z" fill="#F2F2F2"/>
<path d="M14.7982 8.67087H4.55127V11.0894H8.30638V21.5909H11.0431V11.0894H14.7982V8.67087Z" fill="#F2F2F2"/>
</svg>
