<svg width="20" height="20" viewBox="0 0 20 20" fill="none" xmlns="http://www.w3.org/2000/svg">
<path d="M18.6339 12.8876C18.8361 12.0109 18.7689 11.0731 18.3794 10.1397C18.0028 9.23692 17.3533 8.52301 16.5622 8.04356C16.7389 7.38132 16.6922 6.66852 16.3822 5.96017C15.915 4.89347 14.9044 4.18178 13.7644 3.98122C13.9028 3.66343 13.9472 3.26509 13.7844 2.7773C13.2289 1.11059 11.0067 2.22173 9.34 0C7.98445 0.813356 7.69 2.02228 7.74111 3.04842C6.39611 3.27731 5.63 3.56843 5.63 3.56843V3.56954C4.87444 3.87511 4.34 4.61568 4.34 5.48182C4.34 5.97017 4.51667 6.41296 4.8 6.7663L4.41556 6.90964L4.41611 6.9113C3.12167 7.39521 2.20778 8.56468 2.20778 9.93305C2.20778 10.5147 2.37444 11.0592 2.66333 11.532C1.095 12.237 0 13.767 0 15.5554C0 18.0099 2.05056 20 4.58 20C6.39611 20 8.22389 19.6094 9.875 19.075C11.1211 19.6528 13.0389 20 15.9261 20C18.1761 20 20 18.1761 20 15.926C20 14.7171 19.4706 13.6343 18.6339 12.8876Z" fill="black"/>
<path d="M7.49999 11.1109C8.57387 11.1109 9.44443 9.99154 9.44443 8.61079C9.44443 7.23004 8.57387 6.11072 7.49999 6.11072C6.4261 6.11072 5.55554 7.23004 5.55554 8.61079C5.55554 9.99154 6.4261 11.1109 7.49999 11.1109Z" fill="#F5F8FA"/>
<path d="M13.0555 11.1109C14.1294 11.1109 15 9.99154 15 8.61079C15 7.23004 14.1294 6.11072 13.0555 6.11072C11.9816 6.11072 11.1111 7.23004 11.1111 8.61079C11.1111 9.99154 11.9816 11.1109 13.0555 11.1109Z" fill="#F5F8FA"/>
<path d="M7.77774 9.99972C8.39139 9.99972 8.88885 9.37787 8.88885 8.61079C8.88885 7.84371 8.39139 7.22186 7.77774 7.22186C7.16409 7.22186 6.66663 7.84371 6.66663 8.61079C6.66663 9.37787 7.16409 9.99972 7.77774 9.99972Z" fill="#292F33"/>
<path d="M12.7777 9.99972C13.3914 9.99972 13.8888 9.37787 13.8888 8.61079C13.8888 7.84371 13.3914 7.22186 12.7777 7.22186C12.1641 7.22186 11.6666 7.84371 11.6666 8.61079C11.6666 9.37787 12.1641 9.99972 12.7777 9.99972Z" fill="#292F33"/>
<path d="M5.24828 13.8304C5.11162 13.5565 5.24995 13.3332 5.55551 13.3332H15.5555C15.8611 13.3332 15.9994 13.5565 15.8627 13.8304C15.8627 13.8304 14.4444 16.6666 10.5555 16.6666C6.66662 16.6666 5.24828 13.8304 5.24828 13.8304Z" fill="#ECECEC"/>
<path d="M10.5556 14.4443C9.01617 14.4443 7.69061 14.9565 7.06006 15.6976C7.88895 16.2282 9.0295 16.6666 10.5556 16.6666C12.0817 16.6666 13.2228 16.2282 14.0512 15.6976C13.4206 14.9565 12.0951 14.4443 10.5556 14.4443Z" fill="black"/>
</svg>
