<svg width="49" height="49" viewBox="0 0 49 49" fill="none" xmlns="http://www.w3.org/2000/svg">
<path d="M24.2522 0.452629C10.9529 0.452629 0.167969 11.2375 0.167969 24.5368C0.167969 37.8362 10.9529 48.6211 24.2522 48.6211C37.5515 48.6211 48.3364 37.8362 48.3364 24.5368C48.3364 11.2375 37.5515 0.452629 24.2522 0.452629ZM17.2536 36.8612H11.388V19.2144H17.2536V36.8612ZM14.321 16.8047H14.2828C12.3144 16.8047 11.0414 15.4498 11.0414 13.7563C11.0414 12.0247 12.3534 10.7072 14.3599 10.7072C16.3665 10.7072 17.6012 12.0247 17.6395 13.7563C17.6395 15.4498 16.3665 16.8047 14.321 16.8047ZM38.4037 36.8612H32.5388V27.4206C32.5388 25.048 31.6896 23.4299 29.5673 23.4299C27.947 23.4299 26.9819 24.5214 26.5578 25.575C26.4028 25.9521 26.3649 26.4791 26.3649 27.0064V36.8612H20.4997C20.4997 36.8612 20.5765 20.87 20.4997 19.2144H26.3649V21.713C27.1444 20.5106 28.539 18.8002 31.651 18.8002C35.51 18.8002 38.4037 21.3224 38.4037 26.7425V36.8612Z" fill="black" fill-opacity="0.7"/>
</svg>
