<svg width="8457" height="5437" viewBox="0 0 8457 5437" fill="none" xmlns="http://www.w3.org/2000/svg">
<g opacity="0.28">
<path opacity="0.52" d="M6513.71 3179.44C6667.17 3179.44 6791.58 2384.8 6791.58 1404.56C6791.58 424.319 6667.17 -370.321 6513.71 -370.321C6360.24 -370.321 6235.83 424.319 6235.83 1404.56C6235.83 2384.8 6360.24 3179.44 6513.71 3179.44Z" fill="url(#paint0_radial)"/>
<path opacity="0.52" d="M6232.81 -381.194C6385.04 -402.338 6617 367.904 6752.31 1338.71C6887.63 2309.52 6873.13 3113.59 6720.9 3134.73C6568.68 3155.88 6336.71 2385.63 6201.4 1414.83C6066.69 444.022 6080.59 -360.05 6232.81 -381.194Z" fill="url(#paint1_radial)"/>
<path opacity="0.22" d="M5786.4 -996.18C5938.63 -1017.32 6170.59 -247.083 6305.9 723.724C6440.61 1694.53 6426.72 2498.6 6274.49 2519.75C6122.26 2540.89 5890.3 1770.65 5754.99 799.842C5620.28 -170.965 5634.78 -975.036 5786.4 -996.18Z" fill="url(#paint2_radial)"/>
<path opacity="0.52" d="M5219.78 2318.58C5373.25 2318.58 5497.66 1523.94 5497.66 543.699C5497.66 -436.54 5373.25 -1231.18 5219.78 -1231.18C5066.32 -1231.18 4941.91 -436.54 4941.91 543.699C4941.91 1523.94 5066.32 2318.58 5219.78 2318.58Z" fill="url(#paint3_radial)"/>
<path opacity="0.22" d="M5219.78 2826.03C5542.39 2826.03 5803.92 2031.39 5803.92 1051.15C5803.92 70.9135 5542.39 -723.727 5219.78 -723.727C4897.17 -723.727 4635.65 70.9135 4635.65 1051.15C4635.65 2031.39 4897.17 2826.03 5219.78 2826.03Z" fill="url(#paint4_radial)"/>
<path opacity="0.84" d="M4677.93 3179.44C5000.54 3179.44 5262.07 2384.8 5262.07 1404.56C5262.07 424.319 5000.54 -370.321 4677.93 -370.321C4355.32 -370.321 4093.79 424.319 4093.79 1404.56C4093.79 2384.8 4355.32 3179.44 4677.93 3179.44Z" fill="url(#paint5_radial)"/>
<path opacity="0.52" d="M3096.47 2191.71C3419.08 2191.71 3680.61 1397.07 3680.61 416.835C3680.61 -563.403 3419.08 -1358.04 3096.47 -1358.04C2773.86 -1358.04 2512.33 -563.403 2512.33 416.835C2512.33 1397.07 2773.86 2191.71 3096.47 2191.71Z" fill="url(#paint6_radial)"/>
<path opacity="0.73" d="M3559.19 -2186.88C3881.16 -2162.72 4082.92 -1350.79 4009.83 -373.341C3936.13 604.111 3615.97 1377.37 3294.61 1353.21C2972.64 1329.04 2770.88 517.119 2843.97 -460.333C2917.06 -1437.78 3237.22 -2210.44 3559.19 -2186.88Z" fill="url(#paint7_radial)"/>
<path opacity="0.73" d="M3984.46 -1388.85C4306.43 -1364.69 4508.19 -552.764 4435.1 424.688C4362 1402.14 4041.85 2174.8 3719.88 2150.63C3397.91 2126.47 3196.15 1314.54 3269.24 337.092C3342.94 -640.36 3663.09 -1413.02 3984.46 -1388.85Z" fill="url(#paint8_radial)"/>
<path opacity="0.73" d="M4120.37 -1498.2C4442.34 -1474.03 4644.1 -662.106 4571.01 315.346C4497.92 1292.8 4177.76 2066.06 3855.79 2041.9C3533.82 2017.73 3332.06 1205.81 3405.15 228.354C3478.25 -749.098 3799.01 -1522.36 4120.37 -1498.2Z" fill="url(#paint9_radial)"/>
<path opacity="0.73" d="M4522.68 -2638.76C4845.26 -2637.55 5103.2 -1333.88 5098.36 273.662C5093.53 1881.2 4827.74 3183.67 4505.17 3182.46C4182.59 3181.25 3924.65 1877.58 3929.49 270.037C3934.32 -1337.5 4200.11 -2639.97 4522.68 -2638.76Z" fill="url(#paint10_radial)"/>
<path opacity="0.73" d="M5581.02 -2333.08C5903.59 -2340.93 6198.38 -1004.03 6239.45 653.042C6280.53 2310.12 6052.19 3659.7 5729.62 3668.16C5407.04 3676.01 5112.26 2339.12 5071.18 682.04C5030.1 -975.641 5258.44 -2325.23 5581.02 -2333.08Z" fill="url(#paint11_radial)"/>
<path opacity="0.73" d="M3535.63 -24.1654C3858.21 -32.0189 4139.7 755.742 4163.87 1735.61C4188.03 2715.48 3946.4 3516.53 3623.83 3524.38C3301.25 3532.24 3019.76 2744.48 2995.59 1764.61C2971.43 784.739 3213.06 -16.312 3535.63 -24.1654Z" fill="url(#paint12_radial)"/>
<path opacity="0.15" d="M6319.8 -1383.41C6640.56 -1418.45 6987.9 -657.272 7094.82 316.555C7201.74 1290.38 7028.98 2109.56 6708.22 2144.6C6387.45 2179.63 6040.11 1418.45 5933.19 444.627C5825.67 -529.2 5999.04 -1347.77 6319.8 -1383.41Z" fill="url(#paint13_radial)"/>
<path opacity="0.52" d="M2626.5 -2170.57C2945.45 -2121.03 3081.97 -1295.82 2930.96 -326.825C2780.54 641.565 2399.37 1386.43 2080.42 1336.9C1761.47 1287.36 1624.95 462.144 1775.97 -506.85C1926.39 -1475.24 2307.55 -2220.11 2626.5 -2170.57Z" fill="url(#paint14_radial)"/>
<path opacity="0.88" d="M2374 -1416.64C2680.87 -1317.57 2685.7 -480.874 2384.27 451.874C2082.84 1384.62 1588.71 2060.02 1281.84 1960.34C974.973 1861.27 970.14 1024.57 1271.57 91.8237C1573 -840.924 2066.53 -1516.32 2374 -1416.64Z" fill="url(#paint15_radial)"/>
<path opacity="0.52" d="M7872.87 2635.74C8195.48 2635.74 8457 1841.1 8457 860.857C8457 -119.381 8195.48 -914.021 7872.87 -914.021C7550.26 -914.021 7288.73 -119.381 7288.73 860.857C7288.73 1841.1 7550.26 2635.74 7872.87 2635.74Z" fill="url(#paint16_radial)"/>
<path opacity="0.83" d="M7541.23 -1016.11C7859.58 -1069.88 8249.81 -329.844 8412.9 636.733C8576 1603.31 8450.36 2430.34 8132.01 2484.11C7813.67 2537.87 7423.44 1797.84 7260.34 831.257C7097.24 -135.32 7222.88 -962.349 7541.23 -1016.11Z" fill="url(#paint17_radial)"/>
<path opacity="0.28" d="M6829.03 -2044.31C7147.98 -2093.25 7527.34 -1347.77 7675.94 -378.779C7824.54 590.215 7686.21 1415.43 7367.26 1464.36C7048.31 1513.3 6668.95 767.824 6520.35 -201.17C6372.35 -1170.16 6510.08 -1995.38 6829.03 -2044.31Z" fill="url(#paint18_radial)"/>
</g>
<path d="M2587.24 3762.41C2831.11 3762.41 3028.81 2938.55 3028.81 1922.28C3028.81 906.011 2831.11 82.1602 2587.24 82.1602C2343.36 82.1602 2145.66 906.011 2145.66 1922.28C2145.66 2938.55 2343.36 3762.41 2587.24 3762.41Z" fill="url(#paint19_radial)"/>
<path d="M2792.62 4138.16C3036.5 4138.16 3234.2 3314.31 3234.2 2298.04C3234.2 1281.77 3036.5 457.916 2792.62 457.916C2548.75 457.916 2351.05 1281.77 2351.05 2298.04C2351.05 3314.31 2548.75 4138.16 2792.62 4138.16Z" fill="url(#paint20_radial)"/>
<path d="M2128.14 3369.13C2185.19 3369.13 2231.44 2545.28 2231.44 1529.01C2231.44 512.734 2185.19 -311.117 2128.14 -311.117C2071.1 -311.117 2024.85 512.734 2024.85 1529.01C2024.85 2545.28 2071.1 3369.13 2128.14 3369.13Z" fill="url(#paint21_radial)"/>
<path d="M2061.7 3346.17C2118.75 3346.17 2164.99 2522.32 2164.99 1506.05C2164.99 489.779 2118.75 -334.072 2061.7 -334.072C2004.65 -334.072 1958.4 489.779 1958.4 1506.05C1958.4 2522.32 2004.65 3346.17 2061.7 3346.17Z" fill="url(#paint22_radial)"/>
<path d="M3010.09 4194.34C3067.14 4194.34 3113.39 3370.49 3113.39 2354.22C3113.39 1337.95 3067.14 514.1 3010.09 514.1C2953.04 514.1 2906.79 1337.95 2906.79 2354.22C2906.79 3370.49 2953.04 4194.34 3010.09 4194.34Z" fill="url(#paint23_radial)"/>
<path d="M3129.09 4618.43C3186.14 4618.43 3232.39 3794.58 3232.39 2778.31C3232.39 1762.03 3186.14 938.184 3129.09 938.184C3072.04 938.184 3025.8 1762.03 3025.8 2778.31C3025.8 3794.58 3072.04 4618.43 3129.09 4618.43Z" fill="url(#paint24_radial)"/>
<path d="M3189.5 4645.01C3246.55 4645.01 3292.8 3821.16 3292.8 2804.89C3292.8 1788.62 3246.55 964.767 3189.5 964.767C3132.45 964.767 3086.2 1788.62 3086.2 2804.89C3086.2 3821.16 3132.45 4645.01 3189.5 4645.01Z" fill="url(#paint25_radial)"/>
<path d="M3318.17 4705.42C3375.21 4705.42 3421.46 3881.57 3421.46 2865.3C3421.46 1849.03 3375.21 1025.18 3318.17 1025.18C3261.12 1025.18 3214.87 1849.03 3214.87 2865.3C3214.87 3881.57 3261.12 4705.42 3318.17 4705.42Z" fill="url(#paint26_radial)"/>
<path d="M7494.11 4696.96C7551.16 4696.96 7597.41 3873.11 7597.41 2856.84C7597.41 1840.57 7551.16 1016.72 7494.11 1016.72C7437.06 1016.72 7390.81 1840.57 7390.81 2856.84C7390.81 3873.11 7437.06 4696.96 7494.11 4696.96Z" fill="url(#paint27_radial)"/>
<path d="M7230.74 4791.2C7407.89 4791.2 7551.5 3967.35 7551.5 2951.08C7551.5 1934.81 7407.89 1110.96 7230.74 1110.96C7053.58 1110.96 6909.98 1934.81 6909.98 2951.08C6909.98 3967.35 7053.58 4791.2 7230.74 4791.2Z" fill="url(#paint28_radial)"/>
<path d="M6753.52 5229.19C6930.67 5229.19 7074.28 4405.33 7074.28 3389.06C7074.28 2372.79 6930.67 1548.94 6753.52 1548.94C6576.37 1548.94 6432.76 2372.79 6432.76 3389.06C6432.76 4405.33 6576.37 5229.19 6753.52 5229.19Z" fill="url(#paint29_radial)"/>
<path d="M6627.87 5360.28C6805.02 5360.28 6948.63 4536.43 6948.63 3520.16C6948.63 2503.88 6805.02 1680.03 6627.87 1680.03C6450.72 1680.03 6307.11 2503.88 6307.11 3520.16C6307.11 4536.43 6450.72 5360.28 6627.87 5360.28Z" fill="url(#paint30_radial)"/>
<path d="M6404.36 5440.02C6581.52 5440.02 6725.13 4616.17 6725.13 3599.9C6725.13 2583.63 6581.52 1759.78 6404.36 1759.78C6227.21 1759.78 6083.6 2583.63 6083.6 3599.9C6083.6 4616.17 6227.21 5440.02 6404.36 5440.02Z" fill="url(#paint31_radial)"/>
<path d="M6172.4 5496.81C6349.55 5496.81 6493.17 4672.96 6493.17 3656.69C6493.17 2640.41 6349.55 1816.56 6172.4 1816.56C5995.25 1816.56 5851.64 2640.41 5851.64 3656.69C5851.64 4672.96 5995.25 5496.81 6172.4 5496.81Z" fill="url(#paint32_radial)"/>
<path d="M3704.77 4857.66C3839.22 4857.66 3948.21 4033.81 3948.21 3017.53C3948.21 2001.26 3839.22 1177.41 3704.77 1177.41C3570.32 1177.41 3461.33 2001.26 3461.33 3017.53C3461.33 4033.81 3570.32 4857.66 3704.77 4857.66Z" fill="url(#paint33_radial)"/>
<path d="M4186.22 4857.66C4452.44 4857.66 4668.26 4033.81 4668.26 3017.53C4668.26 2001.26 4452.44 1177.41 4186.22 1177.41C3919.99 1177.41 3704.17 2001.26 3704.17 3017.53C3704.17 4033.81 3919.99 4857.66 4186.22 4857.66Z" fill="url(#paint34_radial)"/>
<path d="M1844.23 3283.34C1901.28 3283.34 1947.53 2459.49 1947.53 1443.22C1947.53 426.949 1901.28 -396.901 1844.23 -396.901C1787.18 -396.901 1740.93 426.949 1740.93 1443.22C1740.93 2459.49 1787.18 3283.34 1844.23 3283.34Z" fill="url(#paint35_radial)"/>
<path d="M1717.38 3254.95C1866.17 3254.95 1986.79 2431.1 1986.79 1414.83C1986.79 398.558 1866.17 -425.293 1717.38 -425.293C1568.58 -425.293 1447.96 398.558 1447.96 1414.83C1447.96 2431.1 1568.58 3254.95 1717.38 3254.95Z" fill="url(#paint36_radial)"/>
<path d="M1415.34 3149.23C1659.22 3149.23 1856.92 2325.38 1856.92 1309.11C1856.92 292.838 1659.22 -531.013 1415.34 -531.013C1171.46 -531.013 973.764 292.838 973.764 1309.11C973.764 2325.38 1171.46 3149.23 1415.34 3149.23Z" fill="url(#paint37_radial)"/>
<path d="M986.449 3109.36C1230.33 3109.36 1428.03 2285.51 1428.03 1269.24C1428.03 252.966 1230.33 -570.885 986.449 -570.885C742.573 -570.885 544.873 252.966 544.873 1269.24C544.873 2285.51 742.573 3109.36 986.449 3109.36Z" fill="url(#paint38_radial)"/>
<path d="M2333.53 3523.78C2577.41 3523.78 2775.11 2699.93 2775.11 1683.66C2775.11 667.387 2577.41 -156.464 2333.53 -156.464C2089.65 -156.464 1891.95 667.387 1891.95 1683.66C1891.95 2699.93 2089.65 3523.78 2333.53 3523.78Z" fill="url(#paint39_radial)"/>
<path d="M4857.34 5138.57C5101.21 5138.57 5298.91 4314.72 5298.91 3298.45C5298.91 2282.18 5101.21 1458.32 4857.34 1458.32C4613.46 1458.32 4415.76 2282.18 4415.76 3298.45C4415.76 4314.72 4613.46 5138.57 4857.34 5138.57Z" fill="url(#paint40_radial)"/>
<path d="M5135.21 5138.57C5290.01 5138.57 5415.5 4314.72 5415.5 3298.45C5415.5 2282.18 5290.01 1458.32 5135.21 1458.32C4980.41 1458.32 4854.92 2282.18 4854.92 3298.45C4854.92 4314.72 4980.41 5138.57 5135.21 5138.57Z" fill="url(#paint41_radial)"/>
<path d="M5892.11 5025C6046.91 5025 6172.4 4201.15 6172.4 3184.87C6172.4 2168.6 6046.91 1344.75 5892.11 1344.75C5737.31 1344.75 5611.82 2168.6 5611.82 3184.87C5611.82 4201.15 5737.31 5025 5892.11 5025Z" fill="url(#paint42_radial)"/>
<path d="M5359.93 5081.78C5514.73 5081.78 5640.22 4257.93 5640.22 3241.66C5640.22 2225.39 5514.73 1401.54 5359.93 1401.54C5205.13 1401.54 5079.64 2225.39 5079.64 3241.66C5079.64 4257.93 5205.13 5081.78 5359.93 5081.78Z" fill="url(#paint43_radial)"/>
<path d="M6882.19 4990.56C7036.99 4990.56 7162.48 4166.71 7162.48 3150.44C7162.48 2134.17 7036.99 1310.32 6882.19 1310.32C6727.39 1310.32 6601.9 2134.17 6601.9 3150.44C6601.9 4166.71 6727.39 4990.56 6882.19 4990.56Z" fill="url(#paint44_radial)"/>
<path d="M7671.1 4893.9C7825.9 4893.9 7951.39 4070.05 7951.39 3053.78C7951.39 2037.51 7825.9 1213.66 7671.1 1213.66C7516.3 1213.66 7390.81 2037.51 7390.81 3053.78C7390.81 4070.05 7516.3 4893.9 7671.1 4893.9Z" fill="url(#paint45_radial)"/>
<path d="M8261.88 4631.72C8524.44 4631.72 8737.29 3807.87 8737.29 2791.6C8737.29 1775.33 8524.44 951.476 8261.88 951.476C7999.33 951.476 7786.48 1775.33 7786.48 2791.6C7786.48 3807.87 7999.33 4631.72 8261.88 4631.72Z" fill="url(#paint46_radial)"/>
<path d="M7981.59 4691.53C8244.15 4691.53 8457 3867.68 8457 2851.4C8457 1835.13 8244.15 1011.28 7981.59 1011.28C7719.04 1011.28 7506.19 1835.13 7506.19 2851.4C7506.19 3867.68 7719.04 4691.53 7981.59 4691.53Z" fill="url(#paint47_radial)"/>
<path d="M799.188 3397.52C856.237 3397.52 902.484 2573.67 902.484 1557.4C902.484 541.128 856.237 -282.723 799.188 -282.723C742.139 -282.723 695.892 541.128 695.892 1557.4C695.892 2573.67 742.139 3397.52 799.188 3397.52Z" fill="url(#paint48_radial)"/>
<path d="M742.403 3393.29C799.452 3393.29 845.699 2569.44 845.699 1553.17C845.699 536.899 799.452 -286.952 742.403 -286.952C685.354 -286.952 639.106 536.899 639.106 1553.17C639.106 2569.44 685.354 3393.29 742.403 3393.29Z" fill="url(#paint49_radial)"/>
<path d="M557.559 3393.29C614.608 3393.29 660.855 2569.44 660.855 1553.17C660.855 536.899 614.608 -286.952 557.559 -286.952C500.51 -286.952 454.263 536.899 454.263 1553.17C454.263 2569.44 500.51 3393.29 557.559 3393.29Z" fill="url(#paint50_radial)"/>
<path d="M666.292 3883.23C723.341 3883.23 769.589 3059.38 769.589 2043.1C769.589 1026.83 723.341 202.982 666.292 202.982C609.243 202.982 562.996 1026.83 562.996 2043.1C562.996 3059.38 609.243 3883.23 666.292 3883.23Z" fill="url(#paint51_radial)"/>
<path d="M424.663 3803.48C481.712 3803.48 527.96 2979.63 527.96 1963.36C527.96 947.089 481.712 123.238 424.663 123.238C367.614 123.238 321.367 947.089 321.367 1963.36C321.367 2979.63 367.614 3803.48 424.663 3803.48Z" fill="url(#paint52_radial)"/>
<path d="M287.538 3192.12C489.711 3192.12 653.605 2368.27 653.605 1352C653.605 335.731 489.711 -488.12 287.538 -488.12C85.3646 -488.12 -78.5293 335.731 -78.5293 1352C-78.5293 2368.27 85.3646 3192.12 287.538 3192.12Z" fill="url(#paint53_radial)"/>
<defs>
<radialGradient id="paint0_radial" cx="0" cy="0" r="1" gradientUnits="userSpaceOnUse" gradientTransform="translate(6512.45 1404.5) rotate(180) scale(277.917 1774.81)">
<stop stop-color="#81C88D"/>
<stop offset="0.4491" stop-color="#7BC794" stop-opacity="0.5509"/>
<stop offset="1" stop-color="#77C697" stop-opacity="0"/>
</radialGradient>
<radialGradient id="paint1_radial" cx="0" cy="0" r="1" gradientUnits="userSpaceOnUse" gradientTransform="translate(6476.02 1376.75) rotate(172.098) scale(277.893 1774.81)">
<stop stop-color="#81C88D"/>
<stop offset="0.4491" stop-color="#7BC794" stop-opacity="0.5509"/>
<stop offset="1" stop-color="#77C697" stop-opacity="0"/>
</radialGradient>
<radialGradient id="paint2_radial" cx="0" cy="0" r="1" gradientUnits="userSpaceOnUse" gradientTransform="translate(6029.73 761.731) rotate(172.098) scale(277.894 1774.81)">
<stop stop-color="#81C88D"/>
<stop offset="0.4491" stop-color="#7BC794" stop-opacity="0.5509"/>
<stop offset="1" stop-color="#77C697" stop-opacity="0"/>
</radialGradient>
<radialGradient id="paint3_radial" cx="0" cy="0" r="1" gradientUnits="userSpaceOnUse" gradientTransform="translate(5218.17 543.686) rotate(180) scale(277.917 1774.81)">
<stop stop-color="#81C88D"/>
<stop offset="0.4491" stop-color="#7BC794" stop-opacity="0.5509"/>
<stop offset="1" stop-color="#77C697" stop-opacity="0"/>
</radialGradient>
<radialGradient id="paint4_radial" cx="0" cy="0" r="1" gradientUnits="userSpaceOnUse" gradientTransform="translate(5220.24 1051.11) rotate(180) scale(584.407 1774.81)">
<stop stop-color="#81C88D"/>
<stop offset="0.4491" stop-color="#7BC794" stop-opacity="0.5509"/>
<stop offset="1" stop-color="#77C697" stop-opacity="0"/>
</radialGradient>
<radialGradient id="paint5_radial" cx="0" cy="0" r="1" gradientUnits="userSpaceOnUse" gradientTransform="translate(4678.31 1404.5) rotate(180) scale(584.407 1774.81)">
<stop stop-color="#81C88D"/>
<stop offset="0.4491" stop-color="#7BC794" stop-opacity="0.5509"/>
<stop offset="1" stop-color="#77C697" stop-opacity="0"/>
</radialGradient>
<radialGradient id="paint6_radial" cx="0" cy="0" r="1" gradientUnits="userSpaceOnUse" gradientTransform="translate(3097.19 416.829) rotate(180) scale(584.407 1774.81)">
<stop stop-color="#81C88D"/>
<stop offset="0.4491" stop-color="#7BC794" stop-opacity="0.5509"/>
<stop offset="1" stop-color="#77C697" stop-opacity="0"/>
</radialGradient>
<radialGradient id="paint7_radial" cx="0" cy="0" r="1" gradientUnits="userSpaceOnUse" gradientTransform="translate(3426.39 -416.807) rotate(-175.725) scale(584.436 1774.78)">
<stop stop-color="#81C88D"/>
<stop offset="0.4491" stop-color="#7BC794" stop-opacity="0.5509"/>
<stop offset="1" stop-color="#77C697" stop-opacity="0"/>
</radialGradient>
<radialGradient id="paint8_radial" cx="0" cy="0" r="1" gradientUnits="userSpaceOnUse" gradientTransform="translate(3852.25 380.944) rotate(-175.725) scale(584.436 1774.78)">
<stop stop-color="#81C88D"/>
<stop offset="0.4491" stop-color="#7BC794" stop-opacity="0.5509"/>
<stop offset="1" stop-color="#77C697" stop-opacity="0"/>
</radialGradient>
<radialGradient id="paint9_radial" cx="0" cy="0" r="1" gradientUnits="userSpaceOnUse" gradientTransform="translate(3988.16 271.834) rotate(-175.725) scale(584.436 1774.78)">
<stop stop-color="#81C88D"/>
<stop offset="0.4491" stop-color="#7BC794" stop-opacity="0.5509"/>
<stop offset="1" stop-color="#77C697" stop-opacity="0"/>
</radialGradient>
<radialGradient id="paint10_radial" cx="0" cy="0" r="1" gradientUnits="userSpaceOnUse" gradientTransform="translate(4514.21 271.731) rotate(-179.823) scale(584.41 2910.71)">
<stop stop-color="#81C88D"/>
<stop offset="0.4491" stop-color="#7BC794" stop-opacity="0.5509"/>
<stop offset="1" stop-color="#77C697" stop-opacity="0"/>
</radialGradient>
<radialGradient id="paint11_radial" cx="0" cy="0" r="1" gradientUnits="userSpaceOnUse" gradientTransform="translate(5655.7 667.091) rotate(178.582) scale(584.409 3001.42)">
<stop stop-color="#81C88D"/>
<stop offset="0.4491" stop-color="#7BC794" stop-opacity="0.5509"/>
<stop offset="1" stop-color="#77C697" stop-opacity="0"/>
</radialGradient>
<radialGradient id="paint12_radial" cx="0" cy="0" r="1" gradientUnits="userSpaceOnUse" gradientTransform="translate(3580.1 1750.12) rotate(178.582) scale(584.409 1774.82)">
<stop stop-color="#81C88D"/>
<stop offset="0.4491" stop-color="#7BC794" stop-opacity="0.5509"/>
<stop offset="1" stop-color="#77C697" stop-opacity="0"/>
</radialGradient>
<radialGradient id="paint13_radial" cx="0" cy="0" r="1" gradientUnits="userSpaceOnUse" gradientTransform="translate(6515.06 380.966) rotate(173.719) scale(584.366 1774.81)">
<stop stop-color="#81C88D"/>
<stop offset="0.4491" stop-color="#7BC794" stop-opacity="0.5509"/>
<stop offset="1" stop-color="#77C697" stop-opacity="0"/>
</radialGradient>
<radialGradient id="paint14_radial" cx="0" cy="0" r="1" gradientUnits="userSpaceOnUse" gradientTransform="translate(2353.11 -416.81) rotate(-171.154) scale(584.437 1774.81)">
<stop stop-color="#81C88D"/>
<stop offset="0.4491" stop-color="#7BC794" stop-opacity="0.5509"/>
<stop offset="1" stop-color="#77C697" stop-opacity="0"/>
</radialGradient>
<radialGradient id="paint15_radial" cx="0" cy="0" r="1" gradientUnits="userSpaceOnUse" gradientTransform="translate(1829.05 272.942) rotate(-162.081) scale(584.357 1774.83)">
<stop stop-color="#81C88D"/>
<stop offset="0.4491" stop-color="#7BC794" stop-opacity="0.5509"/>
<stop offset="1" stop-color="#77C697" stop-opacity="0"/>
</radialGradient>
<radialGradient id="paint16_radial" cx="0" cy="0" r="1" gradientUnits="userSpaceOnUse" gradientTransform="translate(7872.85 860.829) rotate(180) scale(584.407 1774.81)">
<stop stop-color="#81C88D"/>
<stop offset="0.4491" stop-color="#7BC794" stop-opacity="0.5509"/>
<stop offset="1" stop-color="#77C697" stop-opacity="0"/>
</radialGradient>
<radialGradient id="paint17_radial" cx="0" cy="0" r="1" gradientUnits="userSpaceOnUse" gradientTransform="translate(7836.93 733.934) rotate(170.422) scale(584.39 1774.88)">
<stop stop-color="#81C88D"/>
<stop offset="0.4491" stop-color="#7BC794" stop-opacity="0.5509"/>
<stop offset="1" stop-color="#77C697" stop-opacity="0"/>
</radialGradient>
<radialGradient id="paint18_radial" cx="0" cy="0" r="1" gradientUnits="userSpaceOnUse" gradientTransform="translate(7098.52 -289.867) rotate(171.279) scale(584.42 1774.74)">
<stop stop-color="#81C88D"/>
<stop offset="0.4491" stop-color="#7BC794" stop-opacity="0.5509"/>
<stop offset="1" stop-color="#77C697" stop-opacity="0"/>
</radialGradient>
<radialGradient id="paint19_radial" cx="0" cy="0" r="1" gradientUnits="userSpaceOnUse" gradientTransform="translate(2587.59 1922.87) rotate(-90) scale(1840.27 441.292)">
<stop stop-color="#71C9BD"/>
<stop offset="0.2883" stop-color="#64BBA1" stop-opacity="0.7117"/>
<stop offset="0.5691" stop-color="#58B28E" stop-opacity="0.4309"/>
<stop offset="0.8153" stop-color="#50AD83" stop-opacity="0.1847"/>
<stop offset="1" stop-color="#4EAB7F" stop-opacity="0"/>
</radialGradient>
<radialGradient id="paint20_radial" cx="0" cy="0" r="1" gradientUnits="userSpaceOnUse" gradientTransform="translate(2792.96 2298.62) rotate(-90) scale(1840.27 441.292)">
<stop stop-color="#71C9BD"/>
<stop offset="0.2883" stop-color="#64BBA1" stop-opacity="0.7117"/>
<stop offset="0.5691" stop-color="#58B28E" stop-opacity="0.4309"/>
<stop offset="0.8153" stop-color="#50AD83" stop-opacity="0.1847"/>
<stop offset="1" stop-color="#4EAB7F" stop-opacity="0"/>
</radialGradient>
<radialGradient id="paint21_radial" cx="0" cy="0" r="1" gradientUnits="userSpaceOnUse" gradientTransform="translate(2127.84 1529.1) rotate(-90) scale(1840.27 103.408)">
<stop stop-color="#71C9BD"/>
<stop offset="0.2883" stop-color="#64BBA1" stop-opacity="0.7117"/>
<stop offset="0.5691" stop-color="#58B28E" stop-opacity="0.4309"/>
<stop offset="0.8153" stop-color="#50AD83" stop-opacity="0.1847"/>
<stop offset="1" stop-color="#4EAB7F" stop-opacity="0"/>
</radialGradient>
<radialGradient id="paint22_radial" cx="0" cy="0" r="1" gradientUnits="userSpaceOnUse" gradientTransform="translate(2061.39 1506.33) rotate(-90) scale(1840.27 103.408)">
<stop stop-color="#71C9BD"/>
<stop offset="0.2883" stop-color="#64BBA1" stop-opacity="0.7117"/>
<stop offset="0.5691" stop-color="#58B28E" stop-opacity="0.4309"/>
<stop offset="0.8153" stop-color="#50AD83" stop-opacity="0.1847"/>
<stop offset="1" stop-color="#4EAB7F" stop-opacity="0"/>
</radialGradient>
<radialGradient id="paint23_radial" cx="0" cy="0" r="1" gradientUnits="userSpaceOnUse" gradientTransform="translate(3009.79 2354.61) rotate(-90) scale(1840.27 103.409)">
<stop stop-color="#71C9BD"/>
<stop offset="0.2883" stop-color="#64BBA1" stop-opacity="0.7117"/>
<stop offset="0.5691" stop-color="#58B28E" stop-opacity="0.4309"/>
<stop offset="0.8153" stop-color="#50AD83" stop-opacity="0.1847"/>
<stop offset="1" stop-color="#4EAB7F" stop-opacity="0"/>
</radialGradient>
<radialGradient id="paint24_radial" cx="0" cy="0" r="1" gradientUnits="userSpaceOnUse" gradientTransform="translate(3128.82 2778.55) rotate(-90) scale(1840.27 103.408)">
<stop stop-color="#71C9BD"/>
<stop offset="0.2883" stop-color="#64BBA1" stop-opacity="0.7117"/>
<stop offset="0.5691" stop-color="#58B28E" stop-opacity="0.4309"/>
<stop offset="0.8153" stop-color="#50AD83" stop-opacity="0.1847"/>
<stop offset="1" stop-color="#4EAB7F" stop-opacity="0"/>
</radialGradient>
<radialGradient id="paint25_radial" cx="0" cy="0" r="1" gradientUnits="userSpaceOnUse" gradientTransform="translate(3189.23 2805.12) rotate(-90) scale(1840.27 103.409)">
<stop stop-color="#71C9BD"/>
<stop offset="0.2883" stop-color="#64BBA1" stop-opacity="0.7117"/>
<stop offset="0.5691" stop-color="#58B28E" stop-opacity="0.4309"/>
<stop offset="0.8153" stop-color="#50AD83" stop-opacity="0.1847"/>
<stop offset="1" stop-color="#4EAB7F" stop-opacity="0"/>
</radialGradient>
<radialGradient id="paint26_radial" cx="0" cy="0" r="1" gradientUnits="userSpaceOnUse" gradientTransform="translate(3318.1 2865.85) rotate(-90) scale(1840.27 103.409)">
<stop stop-color="#71C9BD"/>
<stop offset="0.2883" stop-color="#64BBA1" stop-opacity="0.7117"/>
<stop offset="0.5691" stop-color="#58B28E" stop-opacity="0.4309"/>
<stop offset="0.8153" stop-color="#50AD83" stop-opacity="0.1847"/>
<stop offset="1" stop-color="#4EAB7F" stop-opacity="0"/>
</radialGradient>
<radialGradient id="paint27_radial" cx="0" cy="0" r="1" gradientUnits="userSpaceOnUse" gradientTransform="translate(7494.13 2857.31) rotate(-90) scale(1840.27 103.408)">
<stop stop-color="#71C9BD"/>
<stop offset="0.2883" stop-color="#64BBA1" stop-opacity="0.7117"/>
<stop offset="0.5691" stop-color="#58B28E" stop-opacity="0.4309"/>
<stop offset="0.8153" stop-color="#50AD83" stop-opacity="0.1847"/>
<stop offset="1" stop-color="#4EAB7F" stop-opacity="0"/>
</radialGradient>
<radialGradient id="paint28_radial" cx="0" cy="0" r="1" gradientUnits="userSpaceOnUse" gradientTransform="translate(7231.43 2951.24) rotate(-90) scale(1840.27 321.011)">
<stop stop-color="#71C9BD"/>
<stop offset="0.2883" stop-color="#64BBA1" stop-opacity="0.7117"/>
<stop offset="0.5691" stop-color="#58B28E" stop-opacity="0.4309"/>
<stop offset="0.8153" stop-color="#50AD83" stop-opacity="0.1847"/>
<stop offset="1" stop-color="#4EAB7F" stop-opacity="0"/>
</radialGradient>
<radialGradient id="paint29_radial" cx="0" cy="0" r="1" gradientUnits="userSpaceOnUse" gradientTransform="translate(6754.17 3389.61) rotate(-90) scale(1840.27 321.011)">
<stop stop-color="#71C9BD"/>
<stop offset="0.2883" stop-color="#64BBA1" stop-opacity="0.7117"/>
<stop offset="0.5691" stop-color="#58B28E" stop-opacity="0.4309"/>
<stop offset="0.8153" stop-color="#50AD83" stop-opacity="0.1847"/>
<stop offset="1" stop-color="#4EAB7F" stop-opacity="0"/>
</radialGradient>
<radialGradient id="paint30_radial" cx="0" cy="0" r="1" gradientUnits="userSpaceOnUse" gradientTransform="translate(6628.44 3520.55) rotate(-90) scale(1840.27 321.011)">
<stop stop-color="#71C9BD"/>
<stop offset="0.2883" stop-color="#64BBA1" stop-opacity="0.7117"/>
<stop offset="0.5691" stop-color="#58B28E" stop-opacity="0.4309"/>
<stop offset="0.8153" stop-color="#50AD83" stop-opacity="0.1847"/>
<stop offset="1" stop-color="#4EAB7F" stop-opacity="0"/>
</radialGradient>
<radialGradient id="paint31_radial" cx="0" cy="0" r="1" gradientUnits="userSpaceOnUse" gradientTransform="translate(6404.92 3600.26) rotate(-90) scale(1840.27 321.012)">
<stop stop-color="#71C9BD"/>
<stop offset="0.2883" stop-color="#64BBA1" stop-opacity="0.7117"/>
<stop offset="0.5691" stop-color="#58B28E" stop-opacity="0.4309"/>
<stop offset="0.8153" stop-color="#50AD83" stop-opacity="0.1847"/>
<stop offset="1" stop-color="#4EAB7F" stop-opacity="0"/>
</radialGradient>
<radialGradient id="paint32_radial" cx="0" cy="0" r="1" gradientUnits="userSpaceOnUse" gradientTransform="translate(6172.87 3657.19) rotate(-90) scale(1840.27 321.011)">
<stop stop-color="#71C9BD"/>
<stop offset="0.2883" stop-color="#64BBA1" stop-opacity="0.7117"/>
<stop offset="0.5691" stop-color="#58B28E" stop-opacity="0.4309"/>
<stop offset="0.8153" stop-color="#50AD83" stop-opacity="0.1847"/>
<stop offset="1" stop-color="#4EAB7F" stop-opacity="0"/>
</radialGradient>
<radialGradient id="paint33_radial" cx="0" cy="0" r="1" gradientUnits="userSpaceOnUse" gradientTransform="translate(3703.05 3017.66) rotate(-90) scale(1840.27 243.297)">
<stop stop-color="#71C9BD"/>
<stop offset="0.2883" stop-color="#64BBA1" stop-opacity="0.7117"/>
<stop offset="0.5691" stop-color="#58B28E" stop-opacity="0.4309"/>
<stop offset="0.8153" stop-color="#50AD83" stop-opacity="0.1847"/>
<stop offset="1" stop-color="#4EAB7F" stop-opacity="0"/>
</radialGradient>
<radialGradient id="paint34_radial" cx="0" cy="0" r="1" gradientUnits="userSpaceOnUse" gradientTransform="translate(4186.52 3017.66) rotate(-90) scale(1840.27 481.712)">
<stop stop-color="#71C9BD"/>
<stop offset="0.2883" stop-color="#64BBA1" stop-opacity="0.7117"/>
<stop offset="0.5691" stop-color="#58B28E" stop-opacity="0.4309"/>
<stop offset="0.8153" stop-color="#50AD83" stop-opacity="0.1847"/>
<stop offset="1" stop-color="#4EAB7F" stop-opacity="0"/>
</radialGradient>
<radialGradient id="paint35_radial" cx="0" cy="0" r="1" gradientUnits="userSpaceOnUse" gradientTransform="translate(1843.93 1443.7) rotate(-90) scale(1840.27 103.408)">
<stop stop-color="#71C9BD"/>
<stop offset="0.2883" stop-color="#64BBA1" stop-opacity="0.7117"/>
<stop offset="0.5691" stop-color="#58B28E" stop-opacity="0.4309"/>
<stop offset="0.8153" stop-color="#50AD83" stop-opacity="0.1847"/>
<stop offset="1" stop-color="#4EAB7F" stop-opacity="0"/>
</radialGradient>
<radialGradient id="paint36_radial" cx="0" cy="0" r="1" gradientUnits="userSpaceOnUse" gradientTransform="translate(1720.55 1415.24) rotate(-90) scale(1840.27 269.071)">
<stop stop-color="#71C9BD"/>
<stop offset="0.2883" stop-color="#64BBA1" stop-opacity="0.7117"/>
<stop offset="0.5691" stop-color="#58B28E" stop-opacity="0.4309"/>
<stop offset="0.8153" stop-color="#50AD83" stop-opacity="0.1847"/>
<stop offset="1" stop-color="#4EAB7F" stop-opacity="0"/>
</radialGradient>
<radialGradient id="paint37_radial" cx="0" cy="0" r="1" gradientUnits="userSpaceOnUse" gradientTransform="translate(1415.78 1309.72) rotate(-90) scale(1840.27 441.292)">
<stop stop-color="#71C9BD"/>
<stop offset="0.2883" stop-color="#64BBA1" stop-opacity="0.7117"/>
<stop offset="0.5691" stop-color="#58B28E" stop-opacity="0.4309"/>
<stop offset="0.8153" stop-color="#50AD83" stop-opacity="0.1847"/>
<stop offset="1" stop-color="#4EAB7F" stop-opacity="0"/>
</radialGradient>
<radialGradient id="paint38_radial" cx="0" cy="0" r="1" gradientUnits="userSpaceOnUse" gradientTransform="translate(986.917 1269.87) rotate(-90) scale(1840.27 441.292)">
<stop stop-color="#71C9BD"/>
<stop offset="0.2883" stop-color="#64BBA1" stop-opacity="0.7117"/>
<stop offset="0.5691" stop-color="#58B28E" stop-opacity="0.4309"/>
<stop offset="0.8153" stop-color="#50AD83" stop-opacity="0.1847"/>
<stop offset="1" stop-color="#4EAB7F" stop-opacity="0"/>
</radialGradient>
<radialGradient id="paint39_radial" cx="0" cy="0" r="1" gradientUnits="userSpaceOnUse" gradientTransform="translate(2333.9 1683.76) rotate(-90) scale(1840.27 441.292)">
<stop stop-color="#71C9BD"/>
<stop offset="0.2883" stop-color="#64BBA1" stop-opacity="0.7117"/>
<stop offset="0.5691" stop-color="#58B28E" stop-opacity="0.4309"/>
<stop offset="0.8153" stop-color="#50AD83" stop-opacity="0.1847"/>
<stop offset="1" stop-color="#4EAB7F" stop-opacity="0"/>
</radialGradient>
<radialGradient id="paint40_radial" cx="0" cy="0" r="1" gradientUnits="userSpaceOnUse" gradientTransform="translate(4857.61 3298.91) rotate(-90) scale(1840.27 441.293)">
<stop stop-color="#71C9BD"/>
<stop offset="0.2883" stop-color="#64BBA1" stop-opacity="0.7117"/>
<stop offset="0.5691" stop-color="#58B28E" stop-opacity="0.4309"/>
<stop offset="0.8153" stop-color="#50AD83" stop-opacity="0.1847"/>
<stop offset="1" stop-color="#4EAB7F" stop-opacity="0"/>
</radialGradient>
<radialGradient id="paint41_radial" cx="0" cy="0" r="1" gradientUnits="userSpaceOnUse" gradientTransform="translate(5136.88 3298.91) rotate(-90) scale(1840.27 280.201)">
<stop stop-color="#71C9BD"/>
<stop offset="0.2883" stop-color="#64BBA1" stop-opacity="0.7117"/>
<stop offset="0.5691" stop-color="#58B28E" stop-opacity="0.4309"/>
<stop offset="0.8153" stop-color="#50AD83" stop-opacity="0.1847"/>
<stop offset="1" stop-color="#4EAB7F" stop-opacity="0"/>
</radialGradient>
<radialGradient id="paint42_radial" cx="0" cy="0" r="1" gradientUnits="userSpaceOnUse" gradientTransform="translate(5893.8 3185.05) rotate(-90) scale(1840.27 280.201)">
<stop stop-color="#71C9BD"/>
<stop offset="0.2883" stop-color="#64BBA1" stop-opacity="0.7117"/>
<stop offset="0.5691" stop-color="#58B28E" stop-opacity="0.4309"/>
<stop offset="0.8153" stop-color="#50AD83" stop-opacity="0.1847"/>
<stop offset="1" stop-color="#4EAB7F" stop-opacity="0"/>
</radialGradient>
<radialGradient id="paint43_radial" cx="0" cy="0" r="1" gradientUnits="userSpaceOnUse" gradientTransform="translate(5361.79 3241.98) rotate(-90) scale(1840.27 280.201)">
<stop stop-color="#71C9BD"/>
<stop offset="0.2883" stop-color="#64BBA1" stop-opacity="0.7117"/>
<stop offset="0.5691" stop-color="#58B28E" stop-opacity="0.4309"/>
<stop offset="0.8153" stop-color="#50AD83" stop-opacity="0.1847"/>
<stop offset="1" stop-color="#4EAB7F" stop-opacity="0"/>
</radialGradient>
<radialGradient id="paint44_radial" cx="0" cy="0" r="1" gradientUnits="userSpaceOnUse" gradientTransform="translate(6883.68 3150.89) rotate(-90) scale(1840.27 280.201)">
<stop stop-color="#71C9BD"/>
<stop offset="0.2883" stop-color="#64BBA1" stop-opacity="0.7117"/>
<stop offset="0.5691" stop-color="#58B28E" stop-opacity="0.4309"/>
<stop offset="0.8153" stop-color="#50AD83" stop-opacity="0.1847"/>
<stop offset="1" stop-color="#4EAB7F" stop-opacity="0"/>
</radialGradient>
<radialGradient id="paint45_radial" cx="0" cy="0" r="1" gradientUnits="userSpaceOnUse" gradientTransform="translate(7672.28 3054.1) rotate(-90) scale(1840.27 280.201)">
<stop stop-color="#71C9BD"/>
<stop offset="0.2883" stop-color="#64BBA1" stop-opacity="0.7117"/>
<stop offset="0.5691" stop-color="#58B28E" stop-opacity="0.4309"/>
<stop offset="0.8153" stop-color="#50AD83" stop-opacity="0.1847"/>
<stop offset="1" stop-color="#4EAB7F" stop-opacity="0"/>
</radialGradient>
<radialGradient id="paint46_radial" cx="0" cy="0" r="1" gradientUnits="userSpaceOnUse" gradientTransform="translate(8262.03 2792.24) rotate(-90) scale(1840.27 475.269)">
<stop stop-color="#71C9BD"/>
<stop offset="0.2883" stop-color="#64BBA1" stop-opacity="0.7117"/>
<stop offset="0.5691" stop-color="#58B28E" stop-opacity="0.4309"/>
<stop offset="0.8153" stop-color="#50AD83" stop-opacity="0.1847"/>
<stop offset="1" stop-color="#4EAB7F" stop-opacity="0"/>
</radialGradient>
<radialGradient id="paint47_radial" cx="0" cy="0" r="1" gradientUnits="userSpaceOnUse" gradientTransform="translate(7981.81 2852.01) rotate(-90) scale(1840.27 475.268)">
<stop stop-color="#71C9BD"/>
<stop offset="0.2883" stop-color="#64BBA1" stop-opacity="0.7117"/>
<stop offset="0.5691" stop-color="#58B28E" stop-opacity="0.4309"/>
<stop offset="0.8153" stop-color="#50AD83" stop-opacity="0.1847"/>
<stop offset="1" stop-color="#4EAB7F" stop-opacity="0"/>
</radialGradient>
<radialGradient id="paint48_radial" cx="0" cy="0" r="1" gradientUnits="userSpaceOnUse" gradientTransform="translate(798.886 1557.57) rotate(-90) scale(1840.27 103.409)">
<stop stop-color="#71C9BD"/>
<stop offset="0.2883" stop-color="#64BBA1" stop-opacity="0.7117"/>
<stop offset="0.5691" stop-color="#58B28E" stop-opacity="0.4309"/>
<stop offset="0.8153" stop-color="#50AD83" stop-opacity="0.1847"/>
<stop offset="1" stop-color="#4EAB7F" stop-opacity="0"/>
</radialGradient>
<radialGradient id="paint49_radial" cx="0" cy="0" r="1" gradientUnits="userSpaceOnUse" gradientTransform="translate(742.503 1553.77) rotate(-90) scale(1840.27 103.409)">
<stop stop-color="#71C9BD"/>
<stop offset="0.2883" stop-color="#64BBA1" stop-opacity="0.7117"/>
<stop offset="0.5691" stop-color="#58B28E" stop-opacity="0.4309"/>
<stop offset="0.8153" stop-color="#50AD83" stop-opacity="0.1847"/>
<stop offset="1" stop-color="#4EAB7F" stop-opacity="0"/>
</radialGradient>
<radialGradient id="paint50_radial" cx="0" cy="0" r="1" gradientUnits="userSpaceOnUse" gradientTransform="translate(557.257 1553.77) rotate(-90) scale(1840.27 103.409)">
<stop stop-color="#71C9BD"/>
<stop offset="0.2883" stop-color="#64BBA1" stop-opacity="0.7117"/>
<stop offset="0.5691" stop-color="#58B28E" stop-opacity="0.4309"/>
<stop offset="0.8153" stop-color="#50AD83" stop-opacity="0.1847"/>
<stop offset="1" stop-color="#4EAB7F" stop-opacity="0"/>
</radialGradient>
<radialGradient id="paint51_radial" cx="0" cy="0" r="1" gradientUnits="userSpaceOnUse" gradientTransform="translate(665.99 2043.38) rotate(-90) scale(1840.27 103.409)">
<stop stop-color="#71C9BD"/>
<stop offset="0.2883" stop-color="#64BBA1" stop-opacity="0.7117"/>
<stop offset="0.5691" stop-color="#58B28E" stop-opacity="0.4309"/>
<stop offset="0.8153" stop-color="#50AD83" stop-opacity="0.1847"/>
<stop offset="1" stop-color="#4EAB7F" stop-opacity="0"/>
</radialGradient>
<radialGradient id="paint52_radial" cx="0" cy="0" r="1" gradientUnits="userSpaceOnUse" gradientTransform="translate(424.361 1963.68) rotate(-90) scale(1840.27 103.409)">
<stop stop-color="#71C9BD"/>
<stop offset="0.2883" stop-color="#64BBA1" stop-opacity="0.7117"/>
<stop offset="0.5691" stop-color="#58B28E" stop-opacity="0.4309"/>
<stop offset="0.8153" stop-color="#50AD83" stop-opacity="0.1847"/>
<stop offset="1" stop-color="#4EAB7F" stop-opacity="0"/>
</radialGradient>
<radialGradient id="paint53_radial" cx="0" cy="0" r="1" gradientUnits="userSpaceOnUse" gradientTransform="translate(289.418 1352.62) rotate(-90) scale(1840.27 365.921)">
<stop stop-color="#71C9BD"/>
<stop offset="0.2883" stop-color="#64BBA1" stop-opacity="0.7117"/>
<stop offset="0.5691" stop-color="#58B28E" stop-opacity="0.4309"/>
<stop offset="0.8153" stop-color="#50AD83" stop-opacity="0.1847"/>
<stop offset="1" stop-color="#4EAB7F" stop-opacity="0"/>
</radialGradient>
</defs>
</svg>
