<svg width="84" height="49" viewBox="0 0 84 49" fill="none" xmlns="http://www.w3.org/2000/svg">
<rect x="0.5" y="3.5" width="83" height="45"/>
<path d="M13.2114 20.4302L10.1694 23.5918V32H6.88818V7.11719H10.1694V19.4219L21.2266 7.11719H25.1914L15.3989 18.106L25.9604 32H22.0298L13.2114 20.4302Z" />
<path d="M78.0288 20.3618C78.0288 22.8 77.6187 24.9305 76.7983 26.7534C75.978 28.5649 74.8159 29.9492 73.312 30.9062C71.8081 31.8633 70.0535 32.3418 68.0483 32.3418C66.0887 32.3418 64.3512 31.8633 62.8359 30.9062C61.3206 29.9378 60.1414 28.5649 59.2983 26.7876C58.4666 24.9989 58.0394 22.931 58.0166 20.584V18.7896C58.0166 16.397 58.4325 14.2835 59.2642 12.4492C60.0959 10.6149 61.2694 9.21354 62.7847 8.24512C64.3114 7.2653 66.0545 6.77539 68.0142 6.77539C70.008 6.77539 71.7625 7.2596 73.2778 8.22803C74.8045 9.18506 75.978 10.5807 76.7983 12.415C77.6187 14.238 78.0288 16.3628 78.0288 18.7896V20.3618ZM74.7646 18.7554C74.7646 15.8045 74.1722 13.543 72.9873 11.9707C71.8024 10.387 70.1447 9.59521 68.0142 9.59521C65.9406 9.59521 64.3057 10.387 63.1094 11.9707C61.9245 13.543 61.3149 15.7305 61.2808 18.5332V20.3618C61.2808 23.2215 61.8789 25.4717 63.0752 27.1123C64.2829 28.7415 65.9406 29.5562 68.0483 29.5562C70.1675 29.5562 71.8081 28.7871 72.9702 27.249C74.1323 25.6995 74.7305 23.4836 74.7646 20.6011V18.7554Z" />
<path d="M12.2139 42.4365C12.2139 41.999 12.0589 41.6618 11.749 41.4248C11.4437 41.1878 10.89 40.9486 10.0879 40.707C9.28581 40.4655 8.64779 40.1966 8.17383 39.9004C7.26693 39.3307 6.81348 38.5879 6.81348 37.6719C6.81348 36.8698 7.13932 36.209 7.79102 35.6895C8.44727 35.1699 9.2972 34.9102 10.3408 34.9102C11.0335 34.9102 11.651 35.0378 12.1934 35.293C12.7357 35.5482 13.1618 35.9128 13.4717 36.3867C13.7816 36.8561 13.9365 37.3779 13.9365 37.9521H12.2139C12.2139 37.4326 12.0498 37.027 11.7217 36.7354C11.3981 36.4391 10.9333 36.291 10.3271 36.291C9.76204 36.291 9.32227 36.4118 9.00781 36.6533C8.69792 36.8949 8.54297 37.2321 8.54297 37.665C8.54297 38.0296 8.71159 38.335 9.04883 38.5811C9.38607 38.8226 9.94206 39.0596 10.7168 39.292C11.4915 39.5199 12.1136 39.7819 12.583 40.0781C13.0524 40.3698 13.3965 40.707 13.6152 41.0898C13.834 41.4681 13.9434 41.9124 13.9434 42.4229C13.9434 43.2523 13.6243 43.9131 12.9863 44.4053C12.3529 44.8929 11.4915 45.1367 10.4023 45.1367C9.68229 45.1367 9.01921 45.0046 8.41309 44.7402C7.81152 44.4714 7.34212 44.1022 7.00488 43.6328C6.6722 43.1634 6.50586 42.6165 6.50586 41.9922H8.23535C8.23535 42.5573 8.4222 42.9948 8.7959 43.3047C9.1696 43.6146 9.70508 43.7695 10.4023 43.7695C11.0039 43.7695 11.4551 43.6488 11.7559 43.4072C12.0612 43.1611 12.2139 42.8376 12.2139 42.4365ZM23.4043 40.2832C23.4043 41.2585 23.2357 42.1152 22.8984 42.8535C22.5612 43.5872 22.0781 44.1523 21.4492 44.5488C20.8249 44.9408 20.1048 45.1367 19.2891 45.1367C18.4824 45.1367 17.7624 44.9408 17.1289 44.5488C16.5 44.1523 16.0124 43.5895 15.666 42.8604C15.3242 42.1312 15.151 41.2904 15.1465 40.3379V39.7773C15.1465 38.8066 15.3174 37.9499 15.6592 37.207C16.0055 36.4642 16.4909 35.8968 17.1152 35.5049C17.7441 35.1084 18.4642 34.9102 19.2754 34.9102C20.0866 34.9102 20.8044 35.1061 21.4287 35.498C22.0576 35.8854 22.543 36.446 22.8848 37.1797C23.2266 37.9089 23.3997 38.7588 23.4043 39.7295V40.2832ZM21.6748 39.7637C21.6748 38.6608 21.4652 37.8154 21.0459 37.2275C20.6312 36.6396 20.041 36.3457 19.2754 36.3457C18.528 36.3457 17.9424 36.6396 17.5186 37.2275C17.0993 37.8109 16.8851 38.638 16.876 39.709V40.2832C16.876 41.377 17.0879 42.2223 17.5117 42.8193C17.9401 43.4163 18.5326 43.7148 19.2891 43.7148C20.0547 43.7148 20.6426 43.4232 21.0527 42.8398C21.4674 42.2565 21.6748 41.4043 21.6748 40.2832V39.7637ZM30.8623 40.7822H26.8564V45H25.127V35.0469H31.4502V36.4414H26.8564V39.4014H30.8623V40.7822ZM40.1523 36.4414H37.0488V45H35.333V36.4414H32.2568V35.0469H40.1523V36.4414ZM49.3809 42.5391L50.9121 35.0469H52.6279L50.3311 45H48.6768L46.7832 37.7334L44.8486 45H43.1875L40.8906 35.0469H42.6064L44.1514 42.5254L46.0518 35.0469H47.501L49.3809 42.5391ZM59.1631 42.6826H55.3076L54.501 45H52.7031L56.4629 35.0469H58.0146L61.7812 45H59.9766L59.1631 42.6826ZM55.793 41.2881H58.6777L57.2354 37.1592L55.793 41.2881ZM66.5732 41.165H64.6455V45H62.916V35.0469H66.416C67.5645 35.0469 68.4508 35.3044 69.0752 35.8193C69.6995 36.3343 70.0117 37.0794 70.0117 38.0547C70.0117 38.7201 69.8499 39.2783 69.5264 39.7295C69.2074 40.1761 68.7607 40.5202 68.1865 40.7617L70.4219 44.9111V45H68.5693L66.5732 41.165ZM64.6455 39.7773H66.4229C67.0062 39.7773 67.4619 39.6315 67.79 39.3398C68.1182 39.0436 68.2822 38.6403 68.2822 38.1299C68.2822 37.5967 68.1296 37.1842 67.8242 36.8926C67.5234 36.6009 67.0723 36.4505 66.4707 36.4414H64.6455V39.7773ZM77.4697 40.5566H73.3818V43.6191H78.1602V45H71.6523V35.0469H78.1123V36.4414H73.3818V39.1895H77.4697V40.5566Z" />
<path fill-rule="evenodd" clip-rule="evenodd" d="M43.9741 10.0696C44.1611 10.1259 44.3339 10.2149 44.4828 10.3317C44.6318 10.4484 44.7538 10.5906 44.842 10.75C44.9301 10.9094 44.9827 11.083 44.9967 11.2608C45.0108 11.4386 44.9859 11.6172 44.9236 11.7863L38.9235 28.0714C38.7977 28.413 38.5272 28.6954 38.1713 28.8565C37.8155 29.0176 37.4035 29.0442 37.0259 28.9305C36.6484 28.8167 36.3362 28.572 36.1582 28.25C35.9801 27.9281 35.9507 27.5553 36.0764 27.2138L42.0765 10.9286C42.1387 10.7595 42.2372 10.6031 42.3662 10.4684C42.4953 10.3336 42.6524 10.2232 42.8286 10.1435C43.0048 10.0637 43.1967 10.0161 43.3932 10.0034C43.5898 9.99076 43.7871 10.0132 43.9741 10.0696V10.0696ZM34.0603 14.4693C34.3416 14.7238 34.4995 15.0689 34.4995 15.4288C34.4995 15.7886 34.3416 16.1337 34.0603 16.3882L30.6208 19.5L34.0603 22.6119C34.2036 22.737 34.3179 22.8868 34.3965 23.0524C34.4751 23.2179 34.5165 23.396 34.5182 23.5762C34.52 23.7564 34.482 23.9351 34.4066 24.1019C34.3312 24.2687 34.2198 24.4202 34.0789 24.5476C33.9381 24.675 33.7706 24.7758 33.5863 24.844C33.4019 24.9123 33.2044 24.9466 33.0052 24.945C32.806 24.9435 32.6092 24.906 32.4262 24.8349C32.2432 24.7638 32.0777 24.6604 31.9393 24.5308L27.4392 20.4595C27.158 20.205 27 19.8599 27 19.5C27 19.1402 27.158 18.7951 27.4392 18.5406L31.9393 14.4693C32.2206 14.2149 32.6021 14.072 32.9998 14.072C33.3976 14.072 33.779 14.2149 34.0603 14.4693V14.4693ZM46.9397 14.4693C47.221 14.2149 47.6024 14.072 48.0002 14.072C48.3979 14.072 48.7794 14.2149 49.0607 14.4693L53.5608 18.5406C53.842 18.7951 54 19.1402 54 19.5C54 19.8599 53.842 20.205 53.5608 20.4595L49.0607 24.5308C48.9223 24.6604 48.7568 24.7638 48.5738 24.8349C48.3908 24.906 48.194 24.9435 47.9948 24.945C47.7956 24.9466 47.5981 24.9123 47.4137 24.844C47.2294 24.7758 47.0619 24.675 46.9211 24.5476C46.7802 24.4202 46.6688 24.2687 46.5934 24.1019C46.518 23.9351 46.48 23.7564 46.4818 23.5762C46.4835 23.396 46.5249 23.2179 46.6035 23.0524C46.6821 22.8868 46.7964 22.737 46.9397 22.6119L50.3792 19.5L46.9397 16.3882C46.6584 16.1337 46.5005 15.7886 46.5005 15.4288C46.5005 15.0689 46.6584 14.7238 46.9397 14.4693V14.4693Z" />
</svg>
