<svg width="40" height="40" viewBox="0 0 40 40" fill="none" xmlns="http://www.w3.org/2000/svg">
<path d="M20 0C8.99625 0 0 8.99625 0 20C0 31.0037 8.99625 40 20 40C31.0037 40 40 31.0037 40 20C40 8.99625 31.1 0 20 0ZM29.2 28.9C28.8013 29.4988 28.0987 29.7 27.5 29.2962C22.8 26.4 16.9012 25.8 9.89625 27.3962C9.2 27.6025 8.6 27.1025 8.3975 26.4963C8.2025 25.8 8.6975 25.2013 9.29625 25C16.9012 23.3 23.5025 23.9963 28.6975 27.2C29.4013 27.5 29.4975 28.3 29.1987 28.9H29.2ZM31.6012 23.3988C31.1 24.1025 30.2013 24.4025 29.4975 23.9C24.1012 20.5988 15.8975 19.6038 9.6025 21.6012C8.80125 21.7962 7.89625 21.4 7.70125 20.5975C7.5 19.7975 7.89625 18.8988 8.6975 18.6975C16.0025 16.4963 24.9988 17.6025 31.1975 21.3988C31.8025 21.6987 32.1025 22.7 31.6012 23.3975V23.3988ZM31.8038 17.8C25.3975 13.9963 14.7 13.6 8.6 15.5013C7.59875 15.8 6.60125 15.2013 6.30125 14.2963C6.0025 13.3 6.60125 12.2975 7.5 11.9975C14.6038 9.89625 26.3013 10.2987 33.705 14.6987C34.6038 15.2 34.9012 16.3988 34.4012 17.2975C33.9 18.0013 32.7012 18.2987 31.8025 17.7987L31.8038 17.8Z" fill="#23CF5F"/>
</svg>
