<svg width="49" height="49" viewBox="0 0 49 49"  xmlns="http://www.w3.org/2000/svg">
<path d="M24.3576 0.452637C11.0511 0.452637 0.273438 11.5103 0.273438 25.148C0.273438 36.0611 7.17356 45.3156 16.741 48.5785C17.9452 48.8109 18.3868 48.0465 18.3868 47.391C18.3868 46.8046 18.3667 45.2507 18.3567 43.1921C11.6572 44.6811 10.2443 39.879 10.2443 39.879C9.14847 37.0287 7.56493 36.2664 7.56493 36.2664C5.3833 34.7355 7.73352 34.7669 7.73352 34.7669C10.152 34.9386 11.4224 37.3114 11.4224 37.3114C13.5699 41.0873 17.0601 39.9962 18.4369 39.3659C18.6537 37.7679 19.2739 36.681 19.9623 36.0632C14.6136 35.4454 8.99192 33.3219 8.99192 23.86C8.99192 21.1647 9.92519 18.9616 11.4706 17.2338C11.1996 16.6098 10.3868 14.0988 11.6813 10.6977C11.6813 10.6977 13.6984 10.0359 18.3045 13.2296C20.2312 12.681 22.2784 12.4087 24.3255 12.3961C26.3727 12.4087 28.4199 12.681 30.3466 13.2296C34.9226 10.0359 36.9396 10.6977 36.9396 10.6977C38.2342 14.0988 37.4213 16.6098 37.1805 17.2338C38.7159 18.9616 39.6491 21.1647 39.6491 23.86C39.6491 33.347 34.0194 35.435 28.6607 36.0423C29.5036 36.7836 30.2864 38.2978 30.2864 40.6119C30.2864 43.9167 30.2563 46.5722 30.2563 47.3743C30.2563 48.0214 30.6777 48.7942 31.9121 48.547C41.5478 45.3051 48.4419 36.0444 48.4419 25.148C48.4419 11.5103 37.6582 0.452637 24.3576 0.452637Z"/>
</svg>
