<svg width="49" height="49" viewBox="0 0 49 49" fill="none" xmlns="http://www.w3.org/2000/svg">
<path d="M24.1365 0.452629C10.8371 0.452629 0.0522461 11.2375 0.0522461 24.5368C0.0522461 37.8362 10.8371 48.6211 24.1365 48.6211C37.4358 48.6211 48.2207 37.8362 48.2207 24.5368C48.2207 11.2375 37.4358 0.452629 24.1365 0.452629ZM35.133 19.2309C35.1437 19.468 35.1488 19.7061 35.1488 19.9453C35.1488 27.2501 29.5886 35.6734 19.4204 35.6738H19.4207H19.4204C16.2985 35.6738 13.3934 34.7587 10.947 33.1906C11.3796 33.2417 11.8198 33.2671 12.2656 33.2671C14.8557 33.2671 17.2393 32.3836 19.1315 30.9008C16.7116 30.8559 14.6712 29.2577 13.9671 27.0612C14.3041 27.1258 14.6507 27.1611 15.006 27.1611C15.5106 27.1611 15.9994 27.0931 16.4639 26.9664C13.9344 26.4599 12.0289 24.2245 12.0289 21.5476C12.0289 21.5226 12.0289 21.5002 12.0297 21.4771C12.7746 21.8912 13.6264 22.1404 14.5334 22.1683C13.0491 21.1779 12.0734 19.4849 12.0734 17.5669C12.0734 16.5541 12.3472 15.6052 12.822 14.7883C15.5481 18.1332 19.6221 20.3331 24.2166 20.5642C24.1218 20.1592 24.0729 19.7373 24.0729 19.3037C24.0729 16.252 26.5487 13.7762 29.6015 13.7762C31.1916 13.7762 32.6278 14.4483 33.6366 15.5229C34.896 15.2745 36.0786 14.8144 37.1469 14.1812C36.7335 15.4715 35.8574 16.5541 34.7159 17.2387C35.8342 17.105 36.9 16.8084 37.8904 16.3681C37.1506 17.4769 36.2124 18.4507 35.133 19.2309Z" fill="black" fill-opacity="0.7"/>
</svg>
